<svg width="397" height="49" viewBox="0 0 397 49" fill="none" xmlns="http://www.w3.org/2000/svg">
<path d="M24.1562 48.625C31.375 48.625 36.7188 45.7812 40.1562 40.0625C38.9375 39.3438 38.3438 39 38.3438 39C35.5 43.875 30.3438 46.4375 24.7812 46.4375C15.2812 46.4375 11.6875 36.0312 11.6875 25.5938C11.6875 15.1562 15.2812 4.75 24.7812 4.75C31.6562 4.75 38.125 8.1875 38.125 14.5H39.5625V3.1875H38.125C38.125 4.6875 37.6875 5.75 37 5.75C36.875 5.75 36.75 5.71875 36.5938 5.625C32.7812 3.34375 28.625 2.5625 24.0938 2.5625C9.15625 2.5625 0.8125 12.4062 0.8125 25.5938C0.8125 38.8125 9.15625 48.625 24.1562 48.625ZM61.7812 48.625C74.375 48.625 79.8125 41 79.8125 32.1562C79.8125 22.8125 73.75 15.1875 61.7812 15.1875C49.8125 15.1875 43.75 22.8125 43.75 32.1562C43.75 41 49.1875 48.625 61.7812 48.625ZM61.7812 17.3125C67.0312 17.3125 69.3125 25.1875 69.3125 31.9062C69.3125 38.625 67.0312 46.5 61.7812 46.5C56.5312 46.5 54.25 38.5938 54.25 31.9062C54.25 25.2188 56.5312 17.3125 61.7812 17.3125ZM82.9375 48H103.188V46.6875C99.875 46.6875 98.1875 46.5 98.1875 42.6875V0.625C97.1875 0.8125 88.0625 2.46875 84 2.46875V4C86.5312 4 87.9375 4.03125 87.9375 6.03125V42.4062C87.9375 46.5 86.3438 46.6875 82.9375 46.6875V48ZM105.062 48H125.312V46.6875C122 46.6875 120.312 46.5 120.312 42.6875V0.625C119.312 0.8125 110.188 2.46875 106.125 2.46875V4C108.656 4 110.062 4.03125 110.062 6.03125V42.4062C110.062 46.5 108.469 46.6875 105.062 46.6875V48ZM139.688 48.625C143.969 48.625 147.562 46.5938 148.969 42.4062C148.969 45.6875 151.656 48 155.844 48C161.125 48 162.312 45.25 162.312 43.5625C162.25 43.625 161.719 44.125 160.812 44.125C159.719 44.125 159.219 43.4375 159.219 41.75V28.8125C159.219 18.9375 155.438 15.1875 144.031 15.1875C138.344 15.1875 130.906 17.3438 130.906 22.0312C130.906 24.4375 132.812 26.3438 135.219 26.3438C137.625 26.3438 139.562 24.4375 139.562 22.0312C139.562 20.9062 139.125 19.875 138.406 19.0938C139.375 18.3438 141 17.3125 144.031 17.3125C148.25 17.3125 148.969 20.4375 148.969 27.2812C138.688 27.2812 128.438 29.9688 128.438 39.25C128.438 44.4375 131.625 48.625 139.688 48.625ZM148.969 28.9688V36.4375C148.969 41 146.562 46.1875 143 46.1875C140.125 46.1875 138.688 42.7812 138.688 39.4062C138.688 32.1875 143.531 29.3438 148.969 28.9688ZM168.75 6.03125V48H175.344C177.125 44.25 178 42.375 178 42.375C179.125 44.5625 181.531 48.625 188.938 48.625C199.062 48.625 204.812 41 204.812 31.7812C204.812 22.8125 199.375 15.1875 189.281 15.1875C184 15.1875 180.188 18.5 179 23.5938V0.625C178 0.8125 168.875 2.46875 164.812 2.46875V4C167.344 4 168.75 4.03125 168.75 6.03125ZM179 31.9062C179 25.1875 181.531 17.3125 186.656 17.3125C191.781 17.3125 194.312 25.2188 194.312 31.9062C194.312 38.5938 191.781 46.5 186.656 46.5C181.531 46.5 179 38.625 179 31.9062ZM227.219 48.625C239.812 48.625 245.25 41 245.25 32.1562C245.25 22.8125 239.188 15.1875 227.219 15.1875C215.25 15.1875 209.188 22.8125 209.188 32.1562C209.188 41 214.625 48.625 227.219 48.625ZM227.219 17.3125C232.469 17.3125 234.75 25.1875 234.75 31.9062C234.75 38.625 232.469 46.5 227.219 46.5C221.969 46.5 219.688 38.5938 219.688 31.9062C219.688 25.2188 221.969 17.3125 227.219 17.3125ZM248.375 48H268.625V46.6875C265.312 46.6875 263.625 46.5 263.625 42.6875V26.8125C263.625 22.8125 265.781 17.3125 269.375 17.3125C270.438 17.3125 271.125 17.7812 271.125 18.6562C271.125 18.9688 271.031 19.3125 270.875 19.6562C270.594 20.25 270.531 20.8438 270.531 21.4062C270.531 23.8125 272.469 25.7188 274.875 25.7188C277.281 25.7188 279.188 23.8125 279.188 21.25C279.188 17.9062 275.875 15.1875 271.594 15.1875C265.344 15.1875 263.688 21 263.625 21.3125V15.8125C262.625 16 253.5 17.6562 249.438 17.6562V19.1875C251.969 19.1875 253.375 19.2188 253.375 21.2188V42.4062C253.375 46.5 251.781 46.6875 248.375 46.6875V48ZM292.75 48.625C297.031 48.625 300.625 46.5938 302.031 42.4062C302.031 45.6875 304.719 48 308.906 48C314.188 48 315.375 45.25 315.375 43.5625C315.312 43.625 314.781 44.125 313.875 44.125C312.781 44.125 312.281 43.4375 312.281 41.75V28.8125C312.281 18.9375 308.5 15.1875 297.094 15.1875C291.406 15.1875 283.969 17.3438 283.969 22.0312C283.969 24.4375 285.875 26.3438 288.281 26.3438C290.688 26.3438 292.625 24.4375 292.625 22.0312C292.625 20.9062 292.188 19.875 291.469 19.0938C292.438 18.3438 294.062 17.3125 297.094 17.3125C301.312 17.3125 302.031 20.4375 302.031 27.2812C291.75 27.2812 281.5 29.9688 281.5 39.25C281.5 44.4375 284.688 48.625 292.75 48.625ZM302.031 28.9688V36.4375C302.031 41 299.625 46.1875 296.062 46.1875C293.188 46.1875 291.75 42.7812 291.75 39.4062C291.75 32.1875 296.594 29.3438 302.031 28.9688ZM317.875 16.5938V17.1562C317.875 17.9375 318.562 17.9375 318.625 17.9375H324.469V36.6562C324.469 44.25 327.75 48.625 336.719 48.625C344.719 48.625 346.688 41.75 346.906 41L345.219 40.3438C345.031 40.9062 343.406 45.8125 339.062 45.8125C335.969 45.8125 334.719 43.3125 334.719 37.125V17.9375H345.094C345.156 17.9375 345.844 17.9375 345.844 17.1562V16.5938C345.844 15.8125 345.156 15.8125 345.094 15.8125H334.719V6.46875H328.094C327.969 7.40625 326.938 15.8125 318.625 15.8125C318.562 15.8125 317.875 15.8125 317.875 16.5938ZM366.25 48.625C372.438 48.625 377.062 46.0938 380.156 41C379.062 40.5938 378.531 40.375 378.531 40.375C376.031 44 372.281 46.5 368.094 46.5C360.781 46.5 359.062 38.8438 359.062 32.2188H382.688C382.688 22.8125 376.625 15.1875 365.625 15.1875C354.594 15.1875 348.5 22.8125 348.5 32.0312C348.5 41 354.281 48.625 366.25 48.625ZM365.625 17.3125C370.062 17.3125 371.719 23.8438 372.125 30.0938H359.125C359.531 23.875 361.188 17.3125 365.625 17.3125ZM386.875 43.4688C386.875 46.1562 389.031 48.3125 391.719 48.3125C394.406 48.3125 396.562 46.1562 396.562 43.4688C396.562 40.7812 394.406 38.625 391.719 38.625C389.031 38.625 386.875 40.7812 386.875 43.4688Z" fill="black"/>
</svg>
