<svg width="20" height="24" viewBox="0 0 20 24" fill="none" xmlns="http://www.w3.org/2000/svg">
<path d="M0 4.50002C0 3.9085 0.479911 3.42859 1.07143 3.42859H18.9286C19.5223 3.42859 20 3.9085 20 4.50002C20 5.09377 19.5223 5.57145 18.9286 5.57145H1.07143C0.479911 5.57145 0 5.09377 0 4.50002ZM0 11.6429C0 11.0491 0.479911 10.5714 1.07143 10.5714H18.9286C19.5223 10.5714 20 11.0491 20 11.6429C20 12.2366 19.5223 12.7143 18.9286 12.7143H1.07143C0.479911 12.7143 0 12.2366 0 11.6429ZM18.9286 19.8572H1.07143C0.479911 19.8572 0 19.3795 0 18.7857C0 18.192 0.479911 17.7143 1.07143 17.7143H18.9286C19.5223 17.7143 20 18.192 20 18.7857C20 19.3795 19.5223 19.8572 18.9286 19.8572Z" fill="black"/>
</svg>
